<?xml version="1.0" encoding="UTF-8"?>
<svg width="370px" height="40px" viewBox="0 0 370 40" version="1.1" xmlns="http://www.w3.org/2000/svg" xmlns:xlink="http://www.w3.org/1999/xlink">
    <!-- Generator: Sketch 47.1 (45422) - http://www.bohemiancoding.com/sketch -->
    <title>Group</title>
    <desc>Created with Sketch.</desc>
    <defs>
        <filter x="-53.7%" y="-235.7%" width="207.5%" height="571.4%" filterUnits="objectBoundingBox" id="filter-1">
            <feGaussianBlur stdDeviation="44.7823661 0" in="SourceGraphic"></feGaussianBlur>
        </filter>
        <filter x="-53.7%" y="-235.7%" width="207.5%" height="571.4%" filterUnits="objectBoundingBox" id="filter-2">
            <feGaussianBlur stdDeviation="44.7823661 0" in="SourceGraphic"></feGaussianBlur>
        </filter>
        <filter x="-53.7%" y="-235.7%" width="207.5%" height="571.4%" filterUnits="objectBoundingBox" id="filter-3">
            <feGaussianBlur stdDeviation="44.7823661 0" in="SourceGraphic"></feGaussianBlur>
        </filter>
        <filter x="-53.7%" y="-235.7%" width="207.5%" height="571.4%" filterUnits="objectBoundingBox" id="filter-4">
            <feGaussianBlur stdDeviation="44.7823661 0" in="SourceGraphic"></feGaussianBlur>
        </filter>
        <filter x="-53.7%" y="-235.7%" width="207.5%" height="571.4%" filterUnits="objectBoundingBox" id="filter-5">
            <feGaussianBlur stdDeviation="44.7823661 0" in="SourceGraphic"></feGaussianBlur>
        </filter>
        <filter x="-53.7%" y="-235.7%" width="207.5%" height="571.4%" filterUnits="objectBoundingBox" id="filter-6">
            <feGaussianBlur stdDeviation="44.7823661 0" in="SourceGraphic"></feGaussianBlur>
        </filter>
        <filter x="-53.7%" y="-235.7%" width="207.5%" height="571.4%" filterUnits="objectBoundingBox" id="filter-7">
            <feGaussianBlur stdDeviation="44.7823661 0" in="SourceGraphic"></feGaussianBlur>
        </filter>
        <filter x="-53.7%" y="-235.7%" width="207.5%" height="571.4%" filterUnits="objectBoundingBox" id="filter-8">
            <feGaussianBlur stdDeviation="44.7823661 0" in="SourceGraphic"></feGaussianBlur>
        </filter>
        <path d="M47.008,42.192 L55.6,42.192 C56.1120026,42.192 56.8319954,42.1760002 57.76,42.144 C58.6880046,42.1119998 59.6319952,41.9440015 60.592,41.64 C61.5520048,41.3359985 62.4079962,40.8160037 63.16,40.08 C63.9120038,39.3439963 64.3519994,38.272007 64.48,36.864 C64.5120002,36.4479979 64.5040002,35.936003 64.456,35.328 C64.4079998,34.719997 64.184002,34.1280029 63.784,33.552 C63.383998,32.9759971 62.7600042,32.488002 61.912,32.088 C61.0639958,31.687998 59.8720077,31.488 58.336,31.488 L49.264,31.488 L47.008,42.192 Z M50.128,27.168 L59.104,27.168 C60.5760074,27.168 61.7599955,26.9760019 62.656,26.592 C63.5520045,26.2079981 64.2399976,25.7360028 64.72,25.176 C65.2000024,24.6159972 65.5199992,24.0240031 65.68,23.4 C65.8400008,22.7759969 65.92,22.2400022 65.92,21.792 C65.92,21.4399982 65.8720005,21.0320023 65.776,20.568 C65.6799995,20.1039977 65.4560018,19.6560022 65.104,19.224 C64.7519982,18.7919978 64.2240035,18.4320014 63.52,18.144 C62.8159965,17.8559986 61.8560061,17.712 60.64,17.712 L52.096,17.712 L50.128,27.168 Z M47.104,12.816 L61.888,12.816 C64.1600114,12.816 65.9599934,13.119997 67.288,13.728 C68.6160066,14.336003 69.6239966,15.0559958 70.312,15.888 C71.0000034,16.7200042 71.439999,17.5999954 71.632,18.528 C71.824001,19.4560046 71.92,20.223997 71.92,20.832 C71.92,21.8560051 71.7680015,22.8239954 71.464,23.736 C71.1599985,24.6480046 70.7200029,25.4719963 70.144,26.208 C69.5679971,26.9440037 68.8720041,27.5519976 68.056,28.032 C67.2399959,28.5120024 66.336005,28.8319992 65.344,28.992 L65.344,29.088 C68.7680171,30.1760054 70.48,32.5759814 70.48,36.288 C70.48,37.1840045 70.3040018,38.2479938 69.952,39.48 C69.5999982,40.7120062 68.9520047,41.8959943 68.008,43.032 C67.0639953,44.1680057 65.7520084,45.1279961 64.072,45.912 C62.3919916,46.6960039 60.2400131,47.088 57.616,47.088 L40,47.088 L47.104,12.816 Z M77.7960001,12.816 L102.756,12.816 L101.7,18 L82.6440001,18 L80.7720001,26.976 L98.4360001,26.976 L97.4280001,31.872 L79.7160001,31.872 L77.6520001,41.904 L96.8520001,41.904 L95.7960001,47.088 L70.6920001,47.088 L77.7960001,12.816 Z M118.448,12.816 L124.784,12.816 L130.736,47.088 L124.64,47.088 L123.248,38.016 L109.616,38.016 L104.336,47.088 L97.9040002,47.088 L118.448,12.816 Z M120.512,18.864 L120.416,18.864 L112.16,33.456 L122.624,33.456 L120.512,18.864 Z M131.804,12.816 L160.028,12.816 L158.924,18 L148.028,18 L141.98,47.088 L135.98,47.088 L142.028,18 L130.748,18 L131.804,12.816 Z M162.432,42.192 L171.024,42.192 C171.536003,42.192 172.255996,42.1760002 173.184,42.144 C174.112005,42.1119998 175.055996,41.9440015 176.016,41.64 C176.976005,41.3359985 177.831997,40.8160037 178.584,40.08 C179.336004,39.3439963 179.776,38.272007 179.904,36.864 C179.936001,36.4479979 179.928001,35.936003 179.88,35.328 C179.832,34.719997 179.608002,34.1280029 179.208,33.552 C178.807998,32.9759971 178.184005,32.488002 177.336,32.088 C176.487996,31.687998 175.296008,31.488 173.76,31.488 L164.688,31.488 L162.432,42.192 Z M165.552,27.168 L174.528,27.168 C176.000008,27.168 177.183996,26.9760019 178.08,26.592 C178.976005,26.2079981 179.663998,25.7360028 180.144,25.176 C180.624003,24.6159972 180.944,24.0240031 181.104,23.4 C181.264001,22.7759969 181.344,22.2400022 181.344,21.792 C181.344,21.4399982 181.296001,21.0320023 181.2,20.568 C181.104,20.1039977 180.880002,19.6560022 180.528,19.224 C180.175999,18.7919978 179.648004,18.4320014 178.944,18.144 C178.239997,17.8559986 177.280006,17.712 176.064,17.712 L167.52,17.712 L165.552,27.168 Z M162.528,12.816 L177.312,12.816 C179.584012,12.816 181.383994,13.119997 182.712,13.728 C184.040007,14.336003 185.047997,15.0559958 185.736,15.888 C186.424004,16.7200042 186.863999,17.5999954 187.056,18.528 C187.248001,19.4560046 187.344,20.223997 187.344,20.832 C187.344,21.8560051 187.192002,22.8239954 186.888,23.736 C186.583999,24.6480046 186.144003,25.4719963 185.568,26.208 C184.991998,26.9440037 184.296004,27.5519976 183.48,28.032 C182.663996,28.5120024 181.760005,28.8319992 180.768,28.992 L180.768,29.088 C184.192018,30.1760054 185.904,32.5759814 185.904,36.288 C185.904,37.1840045 185.728002,38.2479938 185.376,39.48 C185.023999,40.7120062 184.376005,41.8959943 183.432,43.032 C182.487996,44.1680057 181.176009,45.1279961 179.496,45.912 C177.815992,46.6960039 175.664014,47.088 173.04,47.088 L155.424,47.088 L162.528,12.816 Z M193.556,32.736 C193.556,35.936016 194.371992,38.4479909 196.004,40.272 C197.636009,42.0960091 199.955985,43.008 202.964,43.008 C204.94801,43.008 206.683993,42.5440046 208.172,41.616 C209.660008,40.6879954 210.907995,39.4720075 211.916,37.968 C212.924006,36.4639925 213.675998,34.7680094 214.172,32.88 C214.668003,30.9919906 214.916,29.0880096 214.916,27.168 C214.916,23.967984 214.140008,21.4560091 212.588,19.632 C211.035993,17.8079909 208.756016,16.896 205.748,16.896 C203.69999,16.896 201.916008,17.3599954 200.396,18.288 C198.875993,19.2160046 197.612006,20.4319925 196.604,21.936 C195.595995,23.4400075 194.836003,25.1359906 194.324,27.024 C193.811998,28.9120094 193.556,30.8159904 193.556,32.736 Z M187.556,32.928 C187.556,29.3439821 188.091995,26.2320132 189.164,23.592 C190.236006,20.9519868 191.643992,18.7760086 193.388,17.064 C195.132009,15.3519914 197.09999,14.0800042 199.292,13.248 C201.484011,12.4159958 203.699989,12 205.94,12 C208.180012,12 210.227991,12.3679963 212.084,13.104 C213.94001,13.8400037 215.515994,14.8719934 216.812,16.2 C218.108007,17.5280066 219.115997,19.1039909 219.836,20.928 C220.556004,22.7520091 220.916,24.767989 220.916,26.976 C220.916,30.5920181 220.404006,33.7119869 219.38,36.336 C218.355995,38.9600131 216.996009,41.1279914 215.3,42.84 C213.603992,44.5520086 211.668011,45.8239958 209.492,46.656 C207.31599,47.4880042 205.076012,47.904 202.772,47.904 C200.307988,47.904 198.13201,47.5200038 196.244,46.752 C194.355991,45.9839962 192.772007,44.9280067 191.492,43.584 C190.211994,42.2399933 189.236004,40.6560091 188.564,38.832 C187.891997,37.0079909 187.556,35.0400106 187.556,32.928 Z M232.120001,29.088 L224.008001,12.816 L230.584001,12.816 L236.200001,25.104 L245.992001,12.816 L253.048001,12.816 L238.888001,29.568 L247.384001,47.088 L240.952001,47.088 L234.808001,33.792 L224.008001,47.088 L216.856001,47.088 L232.120001,29.088 Z" id="path-9"></path>
        <filter x="-1.2%" y="-5.6%" width="103.2%" height="111.1%" filterUnits="objectBoundingBox" id="filter-10">
            <feGaussianBlur stdDeviation="0" in="SourceGraphic"></feGaussianBlur>
        </filter>
    </defs>
    <g id="Page-1" stroke="none" stroke-width="1" fill="none" fill-rule="evenodd">
        <g id="Artboard-2" transform="translate(0.000000, -60.000000)">
            <g id="Group" transform="translate(20.000000, 50.000000)">
                <text id="BEATBOX" filter="url(#filter-2)" font-family="HelveticaNeue-MediumItalic, Helvetica Neue" font-size="48" font-style="italic" font-weight="500" letter-spacing="-2" fill-opacity="0.1" fill="#AAAAAA">
                    <tspan x="0" y="47">BEATBO</tspan>
                    <tspan x="180.048" y="47">X</tspan>
                </text>
                <text id="BEATBOX-Copy" filter="url(#filter-4)" font-family="HelveticaNeue-MediumItalic, Helvetica Neue" font-size="48" font-style="italic" font-weight="500" letter-spacing="-2" fill-opacity="0.25" fill="#999999">
                    <tspan x="10" y="47">BEATBO</tspan>
                    <tspan x="190.048" y="47">X</tspan>
                </text>
                <text id="BEATBOX-Copy-2" filter="url(#filter-6)" font-family="HelveticaNeue-MediumItalic, Helvetica Neue" font-size="48" font-style="italic" font-weight="500" letter-spacing="-2" fill-opacity="0.4" fill="#777777">
                    <tspan x="20" y="47">BEATBO</tspan>
                    <tspan x="200.048" y="47">X</tspan>
                </text>
                <text id="BEATBOX-Copy-3" filter="url(#filter-8)" font-family="HelveticaNeue-MediumItalic, Helvetica Neue" font-size="48" font-style="italic" font-weight="500" letter-spacing="-2" fill-opacity="0.6" fill="#555555">
                    <tspan x="30" y="47">BEATBO</tspan>
                    <tspan x="210.048" y="47">X</tspan>
                </text>
                <g id="BEATBOX-Copy-4" filter="url(#filter-10)">
                    <use fill="#FFFFFF" fill-rule="evenodd" xlink:href="#path-9"></use>
                    <use stroke="#0D0D0D" stroke-width="4" xlink:href="#path-9"></use>
                    <use stroke="#EDEDED" stroke-width="2" xlink:href="#path-9"></use>
                </g>
            </g>
        </g>
    </g>
</svg>